#!OML:ASF H:\Not Pregnant\Project 1\Capture day 1\Session 1\non-pregnant.ASF
:FULLY-SPECIFIED
:DEGREES
862
root -4.90861 15.9587 2.13834 -166.47 191.334 -192.287
lowerback 1.00786 5.74135 13.1789
upperback -7.93882 8.59806 2.33814
thorax -7.58843 3.44909 -5.2914
lowerneck 13.553 -10.885 -31.7022
upperneck -0.910516 -20.4661 37.1351
head 5.42272 -11.6063 17.7579
rclavicle -2.21521e-014 1.0138e-014
rhumerus -54.1245 9.31628 -94.7222
rradius 43.1775
rwrist -12.5543
rhand -9.68717 -24.6541
rfingers 7.12502
rthumb 16.2849 -53.9903
lclavicle -2.21521e-014 1.0138e-014
lhumerus -62.0876 -1.651 91.7464
lradius 108.933
lwrist 33.3047
lhand -26.0326 -31.4188
lfingers 7.12502
lthumb 0.514239 -1.43972
rfemur 12.0001 5.7013 31.9097
rtibia 2.72335
rfoot -13.7382 20.7961
rtoes -12.7283
lfemur -59.3465 6.58801 -3.51028
ltibia 46.5245
lfoot 15.1998 -9.30237
ltoes -33.454
863
root -4.88149 15.9382 2.34472 -166.289 191.909 -192.286
lowerback 0.795303 5.84209 13.1799
upperback -7.94847 8.69348 2.33694
thorax -7.45739 3.50522 -5.26867
lowerneck 13.3356 -10.8719 -31.6813
upperneck -0.724466 -20.419 37.0493
head 5.47824 -11.5579 17.7065
rclavicle 4.70871e-015 -4.65156e-014
rhumerus -53.2299 10.2131 -95.4831
rradius 45.3352
rwrist -13.9946
rhand -10.2311 -25.4516
rfingers 7.12502
rthumb 15.7611 -54.8299
lclavicle 4.70871e-015 -4.65156e-014
lhumerus -62.4789 -0.92724 91.5673
lradius 105.748
lwrist 33.4556
lhand -24.8887 -29.6042
lfingers 7.12502
lthumb 1.61905 0.36941
rfemur 13.9932 6.4403 31.5897
rtibia -6.36111e-015
rfoot -12.125 21.2835
rtoes -13.1325
lfemur -57.7954 5.67447 -2.57748
ltibia 43.5643
lfoot 15.3478 -8.47798
ltoes -35.1821
864
root -4.8551 15.9128 2.55431 -166.154 192.475 -192.234
lowerback 0.59423 5.92355 13.1282
upperback -7.95796 8.76219 2.32647
thorax -7.34224 3.55016 -5.22863
lowerneck 13.1267 -10.8481 -31.6502
upperneck -0.540295 -20.3566 36.9644
head 5.52462 -11.5027 17.6589
rclavicle 1.38777e-014 -2.54444e-014
rhumerus -52.3521 11.0909 -96.2086
rradius 47.6664
rwrist -15.5264
rhand -10.9688 -26.1703
rfingers 7.12502
rthumb 15.0506 -55.6032
lclavicle 1.38777e-014 -2.54444e-014
lhumerus -62.7904 -0.202678 91.3181
lradius 102.438
lwrist 33.4968
lhand -23.7334 -27.7894
lfingers 7.12502
lthumb 2.73484 2.17283
rfemur 14.6013 7.15331 31.1838
rtibia -9.54166e-015
rfoot -11.7993 21.5263
rtoes -13.6143
lfemur -56.2886 4.80119 -1.87393
ltibia 41.1116
lfoot 15.4528 -7.68746
ltoes -36.2808
865
root -4.82969 15.8832 2.76749 -166.071 193.021 -192.13
lowerback 0.393925 5.98244 13.0252
upperback -7.96211 8.79775 2.30593
thorax -7.23178 3.58157 -5.17151
lowerneck 12.9218 -10.8163 -31.6041
upperneck -0.361062 -20.2802 36.8817
head 5.56193 -11.441 17.6138
rclavicle -5.68773e-014 -2.82274e-014
rhumerus -51.4783 11.9355 -96.8922
rradius 50.1444
rwrist -16.9799
rhand -11.8108 -26.7252
rfingers 7.12502
rthumb 14.2393 -56.217
lclavicle -5.68773e-014 -2.82274e-014
lhumerus -63.0165 0.500855 91.0153
lradius 99.0025
lwrist 33.4907
lhand -22.6242 -26.0563
lfingers 7.12502
lthumb 3.80599 3.88947
rfemur 15.264 7.82899 30.7344
rtibia 1.90833e-014
rfoot -11.4107 21.7826
rtoes -14.1826
lfemur -54.8748 4.05467 -1.49789
ltibia 39.2722
lfoot 15.2216 -7.13178
ltoes -36.7918
866
root -4.80556 15.852 2.98409 -166.03 193.537 -191.974
lowerback 0.189777 6.0175 12.8694
upperback -7.96479 8.79859 2.27683
thorax -7.12835 3.59847 -5.09487
lowerneck 12.7052 -10.7814 -31.5433
upperneck -0.173285 -20.1958 36.7982
head 5.59894 -11.3742 17.5669
rclavicle -2.83641e-014 -2.82274e-014
rhumerus -50.6074 12.732 -97.5256
rradius 52.7477
rwrist -18.1882
rhand -12.6285 -27.0476
rfingers 7.12502
rthumb 13.4513 -56.5933
lclavicle -2.83641e-014 -2.82274e-014
lhumerus -63.1536 1.16097 90.6828
lradius 95.4478
lwrist 33.5178
lhand -21.6505 -24.4941
lfingers 7.12502
lthumb 4.7462 5.4327
rfemur 15.9641 8.46141 30.2524
rtibia 9.54166e-015
rfoot -10.9413 22.0389
rtoes -14.9083
lfemur -53.6037 3.52657 -1.51764
ltibia 38.1137
lfoot 14.3551 -6.95725
ltoes -37.0246
867
root -4.7829 15.8205 3.20415 -166.02 194.016 -191.776
lowerback -0.0355141 6.02937 12.6705
upperback -7.97199 8.76408 2.23931
thorax -7.02754 3.59997 -5.00205
lowerneck 12.4894 -10.7402 -31.4656
upperneck 0.0268301 -20.1027 36.711
head 5.63331 -11.3029 17.518
rclavicle 1.00262e-014 -1.98785e-016
rhumerus -49.7469 13.4633 -98.1105
rradius 55.4539
rwrist -19.0263
rhand -13.3162 -27.09
rfingers 7.12502
rthumb 12.7884 -56.6783
lclavicle 1.00262e-014 -1.98785e-016
lhumerus -63.2124 1.76131 90.3383
lradius 91.7742
lwrist 33.6493
lhand -20.8556 -23.1592
lfingers 7.12502
lthumb 5.51373 6.74907
rfemur 16.6901 9.04535 29.7508
rtibia 2.8625e-014
rfoot -10.3922 22.2789
rtoes -15.8044
lfemur -52.4887 3.25478 -1.932
ltibia 37.6292
lfoot 12.6873 -7.04984
ltoes -36.8252
868
root -4.76218 15.7907 3.42734 -166.027 194.437 -191.541
lowerback -0.279917 6.01172 12.4273
upperback -7.99713 8.68827 2.19774
thorax -6.94705 3.58161 -4.88915
lowerneck 12.2779 -10.6909 -31.3702
upperneck 0.249403 -20.0009 36.6139
head 5.66609 -11.2269 17.4646
rclavicle 4.42296e-015 1.47101e-014
rhumerus -48.9151 14.1166 -98.651
rradius 58.2496
rwrist -19.4169
rhand -13.7834 -26.8252
rfingers 7.12502
rthumb 12.338 -56.4412
lclavicle 4.42296e-015 1.47101e-014
lhumerus -63.2024 2.2925 89.9957
lradius 87.9782
lwrist 33.9725
lhand -20.2732 -22.0912
lfingers 7.12502
lthumb 6.07607 7.8017
rfemur 17.4207 9.56529 29.2426
rtibia -7.95139e-014
rfoot -9.71842 22.5185
rtoes -16.7772
lfemur -51.53 3.23256 -2.68397
ltibia 37.7214
lfoot 10.2248 -7.1558
ltoes -36.264
869
root -4.74326 15.7653 3.65369 -166.04 194.778 -191.271
lowerback -0.557907 5.96022 12.1444
upperback -8.04464 8.56396 2.15142
thorax -6.88342 3.53966 -4.75809
lowerneck 12.0736 -10.6355 -31.257
upperneck 0.493648 -19.8937 36.5048
head 5.69764 -11.1482 17.4049
rclavicle -1.77664e-014 -1.03368e-014
rhumerus -48.1041 14.6872 -99.1576
rradius 61.1154
rwrist -19.3686
rhand -14.0484 -26.2644
rfingers 7.12502
rthumb 12.0825 -55.8955
lclavicle -1.77664e-014 -1.03368e-014
lhumerus -63.1229 2.74992 89.6666
lradius 84.0593
lwrist 34.6017
lhand -19.8562 -21.2841
lfingers 7.12502
lthumb 6.47862 8.59679
rfemur 18.1337 10.0017 28.7277
rtibia -6.36111e-015
rfoot -8.87801 22.769
rtoes -17.7432
lfemur -50.7311 3.36663 -3.65552
ltibia 38.2244
lfoot 7.28908 -7.00743
ltoes -35.4318
870
root -4.72572 15.7458 3.88286 -166.038 195.011 -190.973
lowerback -0.872996 5.86835 11.8348
upperback -8.12318 8.38389 2.10361
thorax -6.84377 3.46911 -4.61251
lowerneck 11.87 -10.5778 -31.1214
upperneck 0.769969 -19.7855 36.372
head 5.73134 -11.0675 17.3305
rclavicle 6.1996e-015 6.95746e-015
rhumerus -47.3163 15.1831 -99.6497
rradius 64.0449
rwrist -18.9694
rhand -14.1616 -25.4536
rfingers 7.12502
rthumb 11.9733 -55.0912
lclavicle 6.1996e-015 6.95746e-015
lhumerus -62.9686 3.1393 89.3506
lradius 80.0034
lwrist 35.7181
lhand -19.4812 -20.7685
lfingers 7.12502
lthumb 6.84063 9.10098
rfemur 18.8025 10.3314 28.2135
rtibia 2.8625e-014
rfoot -7.83493 23.0432
rtoes -18.6599
lfemur -50.0955 3.55212 -4.71612
ltibia 38.9563
lfoot 4.32374 -6.55167
ltoes -34.4826
871
root -4.70841 15.7341 4.11345 -165.988 195.144 -190.659
lowerback -1.22646 5.74383 11.5151
upperback -8.24369 8.16002 2.0546
thorax -6.83499 3.37417 -4.46164
lowerneck 11.6672 -10.5195 -30.9647
upperneck 1.08307 -19.679 36.2065
head 5.76844 -10.9859 17.2366
rclavicle -2.7718e-014 7.55382e-015
rhumerus -46.539 15.6102 -100.141
rradius 67.0164
rwrist -18.351
rhand -14.2401 -24.4135
rfingers 7.12502
rthumb 11.8976 -54.0555
lclavicle -2.7718e-014 7.55382e-015
lhumerus -62.738 3.47483 89.0393
lradius 75.8791
lwrist 37.6978
lhand -18.978 -20.2832
lfingers 7.12502
lthumb 7.32639 9.56994
rfemur 19.3771 10.5703 27.6963
rtibia 2.8625e-014
rfoot -6.4943 23.3529
rtoes -19.3726
lfemur -49.6335 3.69921 -5.74361
ltibia 39.7662
lfoot 1.69254 -5.89338
ltoes -33.6285
872
root -4.69132 15.73 4.3433 -165.883 195.155 -190.316
lowerback -1.60778 5.57952 11.168
upperback -8.4103 7.88471 2.00539
thorax -6.87004 3.25156 -4.29688
lowerneck 11.4657 -10.4647 -30.796
upperneck 1.43044 -19.58 36.0001
head 5.81043 -10.906 17.1193
rclavicle 5.40943e-014 4.09496e-014
rhumerus -45.7716 15.9795 -100.644
rradius 70.0128
rwrist -17.6598
rhand -14.3761 -23.2281
rfingers 7.12502
rthumb 11.7665 -52.8776
lclavicle 5.40943e-014 4.09496e-014
lhumerus -62.4265 3.79071 88.6881
lradius 71.8224
lwrist 40.9575
lhand -18.214 -19.492
lfingers 7.12502
lthumb 8.06376 10.3342
rfemur 19.8347 10.6925 27.1607
rtibia -6.36111e-015
rfoot -4.79587 23.6923
rtoes -19.9309
lfemur -49.3544 3.73179 -6.69464
ltibia 40.5651
lfoot -0.372927 -5.30171
ltoes -32.9957
873
root -4.67442 15.7308 4.56975 -165.756 195.012 -189.874
lowerback -2.00653 5.36297 10.7383
upperback -8.607 7.5399 1.94115
thorax -6.94179 3.09686 -4.10461
lowerneck 11.2495 -10.4237 -30.621
upperneck 1.81062 -19.5 35.7548
head 5.8657 -10.8323 16.9767
rclavicle -1.4064e-014 -1.21259e-014
rhumerus -44.9779 16.2979 -101.16
rradius 72.9895
rwrist -17.0235
rhand -14.6761 -21.9017
rfingers 7.12502
rthumb 11.4772 -51.5675
lclavicle -1.4064e-014 -1.21259e-014
lhumerus -62.0125 4.12789 88.2207
lradius 67.9162
lwrist 45.3014
lhand -17.1974 -18.0773
lfingers 7.12502
lthumb 9.04485 11.7088
rfemur 16.952 10.5784 26.4896
rtibia 6.16078
rfoot -5.87403 23.6622
rtoes -20.3144
lfemur -49.2382 3.57544 -7.61553
ltibia 41.3188
lfoot -1.91971 -4.92378
ltoes -32.5471
874
root -4.65836 15.7344 4.79078 -165.638 194.712 -189.289
lowerback -2.40583 5.09383 10.1808
upperback -8.81546 7.12534 1.85045
thorax -7.04 2.91428 -3.87274
lowerneck 11.0129 -10.4058 -30.4508
upperneck 2.21234 -19.4517 35.4845
head 5.9409 -10.7716 16.8146
rclavicle -3.26255e-014 -5.725e-014
rhumerus -44.1473 16.5656 -101.682
rradius 75.9252
rwrist -16.5284
rhand -15.1527 -20.534
rfingers 7.12502
rthumb 11.0174 -50.2249
lclavicle -3.26255e-014 -5.725e-014
lhumerus -61.479 4.48528 87.6173
lradius 64.1931
lwrist 50.1213
lhand -16.3728 -15.9482
lfingers 7.12502
lthumb 9.8405 13.8018
rfemur 14.9861 10.2809 25.7813
rtibia 10.4448
rfoot -5.55605 23.7485
rtoes -20.7002
lfemur -49.2407 3.20335 -8.55556
ltibia 42.0299
lfoot -3.1129 -4.76373
ltoes -32.4803
875
root -4.64353 15.7364 5.00471 -165.581 194.262 -188.55
lowerback -2.76287 4.77736 9.49138
upperback -9.00911 6.65213 1.72655
thorax -7.15478 2.71114 -3.60775
lowerneck 10.7597 -10.4173 -30.3005
upperneck 2.61239 -19.446 35.2187
head 6.03939 -10.7314 16.6483
rclavicle -3.8117e-014 -5.1684e-015
rhumerus -43.2917 16.7747 -102.2
rradius 78.8014
rwrist -16.2116
rhand -15.7774 -19.1724
rfingers 7.12502
rthumb 10.4149 -48.8944
lclavicle -3.8117e-014 -5.1684e-015
lhumerus -60.8009 4.8301 86.8929
lradius 60.6022
lwrist 54.6448
lhand -16.0923 -13.2791
lfingers 7.12502
lthumb 10.1111 16.458
rfemur 13.0842 10.3074 25.1394
rtibia 14.6219
rfoot -4.58999 23.264
rtoes -21.0834
lfemur -49.2691 2.59561 -9.53847
ltibia 42.7033
lfoot -4.10836 -4.77531
ltoes -32.5574
876
root -4.6304 15.733 5.21057 -165.617 193.68 -187.69
lowerback -3.02616 4.42747 8.70254
upperback -9.17177 6.14437 1.56931
thorax -7.28941 2.49775 -3.32922
lowerneck 10.5009 -10.4648 -30.1738
upperneck 2.98495 -19.494 34.9866
head 6.16075 -10.7191 16.4907
rclavicle -2.27111e-014 -3.77691e-015
rhumerus -42.4331 16.9579 -102.711
rradius 81.6016
rwrist -16.1234
rhand -16.52 -17.8073
rfingers 7.12502
rthumb 9.6985 -47.564
lclavicle -2.27111e-014 -3.77691e-015
lhumerus -59.9531 5.08327 86.1328
lradius 57.0646
lwrist 58.2737
lhand -16.6621 -10.3367
lfingers 7.12502
lthumb 9.56141 19.4263
rfemur 11.1626 10.0777 24.4211
rtibia 18.8688
rfoot -3.12646 22.7552
rtoes -21.4987
lfemur -49.2399 1.80338 -10.5732
ltibia 43.3393
lfoot -5.05647 -4.87007
ltoes -32.591
